<svg xmlns="http://www.w3.org/2000/svg" viewBox="0 0 400 250" class="library-books">
  <!-- Book 1: Dark Blue Vertical -->
  <g transform="translate(30, 50)">
    <rect x="0" y="0" width="60" height="100" fill="#2c3e50" rx="5" ry="5"/>
    <rect x="5" y="5" width="50" height="90" fill="#34495e" rx="3" ry="3"/>
    <line x1="10" y1="20" x2="45" y2="20" stroke="#ecf0f1" stroke-width="3"/>
    <line x1="10" y1="35" x2="45" y2="35" stroke="#ecf0f1" stroke-width="3"/>
    <line x1="10" y1="50" x2="35" y2="50" stroke="#ecf0f1" stroke-width="3"/>
  </g>

  <!-- Book 2: Medium Blue Vertical -->
  <g transform="translate(100, 40)">
    <rect x="0" y="0" width="70" height="110" fill="#3498db" rx="5" ry="5"/>
    <rect x="5" y="5" width="60" height="100" fill="#5dade2" rx="3" ry="3"/>
    <line x1="15" y1="25" x2="50" y2="25" stroke="#ffffff" stroke-width="3"/>
    <line x1="15" y1="40" x2="55" y2="40" stroke="#ffffff" stroke-width="3"/>
    <line x1="15" y1="55" x2="40" y2="55" stroke="#ffffff" stroke-width="3"/>
  </g>

  <!-- Book 3: Lighter Blue Vertical -->
  <g transform="translate(180, 60)">
    <rect x="0" y="0" width="50" height="90" fill="#2980b9" rx="5" ry="5"/>
    <rect x="5" y="5" width="40" height="80" fill="#3498db" rx="3" ry="3"/>
    <line x1="10" y1="20" x2="35" y2="20" stroke="#ffffff" stroke-width="2"/>
    <line x1="10" y1="35" x2="30" y2="35" stroke="#ffffff" stroke-width="2"/>
    <line x1="10" y1="50" x2="25" y2="50" stroke="#ffffff" stroke-width="2"/>
  </g>

  <!-- Book 4: Horizontal Dark Blue -->
  <g transform="translate(240, 100) rotate(-15)">
    <rect x="0" y="0" width="100" height="60" fill="#2c3e50" rx="5" ry="5"/>
    <rect x="5" y="5" width="90" height="50" fill="#34495e" rx="3" ry="3"/>
    <line x1="15" y1="20" x2="80" y2="20" stroke="#ecf0f1" stroke-width="3"/>
    <line x1="15" y1="35" x2="70" y2="35" stroke="#ecf0f1" stroke-width="3"/>
  </g>

  <!-- Book 5: Green Vertical -->
  <g transform="translate(330, 50)">
    <rect x="0" y="0" width="55" height="95" fill="#27ae60" rx="5" ry="5"/>
    <rect x="5" y="5" width="45" height="85" fill="#2ecc71" rx="3" ry="3"/>
    <line x1="10" y1="20" x2="40" y2="20" stroke="#ffffff" stroke-width="2"/>
    <line x1="10" y1="35" x2="35" y2="35" stroke="#ffffff" stroke-width="2"/>
    <line x1="10" y1="50" x2="30" y2="50" stroke="#ffffff" stroke-width="2"/>
  </g>

  <!-- Book 6: Purple Horizontal -->
  <g transform="translate(50, 170) rotate(10)">
    <rect x="0" y="0" width="90" height="50" fill="#8e44ad" rx="5" ry="5"/>
    <rect x="5" y="5" width="80" height="40" fill="#9b59b6" rx="3" ry="3"/>
    <line x1="15" y1="15" x2="70" y2="15" stroke="#ffffff" stroke-width="2"/>
    <line x1="15" y1="30" x2="60" y2="30" stroke="#ffffff" stroke-width="2"/>
  </g>

  <!-- Book 7: Red Vertical -->
  <g transform="translate(250, 180)">
    <rect x="0" y="0" width="65" height="105" fill="#c0392b" rx="5" ry="5"/>
    <rect x="5" y="5" width="55" height="95" fill="#e74c3c" rx="3" ry="3"/>
    <line x1="15" y1="25" x2="45" y2="25" stroke="#ffffff" stroke-width="2"/>
    <line x1="15" y1="40" x2="40" y2="40" stroke="#ffffff" stroke-width="2"/>
    <line x1="15" y1="55" x2="35" y2="55" stroke="#ffffff" stroke-width="2"/>
  </g>
</svg>